<svg id="visual" viewBox="0 0 900 600" width="900" height="600" xmlns="http://www.w3.org/2000/svg" xmlns:xlink="http://www.w3.org/1999/xlink" version="1.1"><g stroke-width="1" stroke-linejoin="bevel"><path d="M489 295L402 322L431 408Z" fill="#8a4309" stroke="#8a4309"></path><path d="M431 408L514 415L489 295Z" fill="#aa5e09" stroke="#aa5e09"></path><path d="M514 415L577 366L489 295Z" fill="#a25709" stroke="#a25709"></path><path d="M383 208L318 301L402 322Z" fill="#a25709" stroke="#a25709"></path><path d="M402 322L286 403L431 408Z" fill="#b26508" stroke="#b26508"></path><path d="M577 366L596 281L489 295Z" fill="#c17406" stroke="#c17406"></path><path d="M489 295L383 208L402 322Z" fill="#a25709" stroke="#a25709"></path><path d="M534 190L383 208L489 295Z" fill="#a25709" stroke="#a25709"></path><path d="M431 408L539 495L514 415Z" fill="#d08302" stroke="#d08302"></path><path d="M514 415L561 496L577 366Z" fill="#d78b00" stroke="#d78b00"></path><path d="M286 403L402 515L431 408Z" fill="#9a5009" stroke="#9a5009"></path><path d="M431 408L402 515L539 495Z" fill="#9a5009" stroke="#9a5009"></path><path d="M596 281L534 190L489 295Z" fill="#9a5009" stroke="#9a5009"></path><path d="M503 600L561 496L539 495Z" fill="#9a5009" stroke="#9a5009"></path><path d="M539 495L561 496L514 415Z" fill="#b26508" stroke="#b26508"></path><path d="M683 311L622 231L596 281Z" fill="#ba6c07" stroke="#ba6c07"></path><path d="M318 301L286 403L402 322Z" fill="#8a4309" stroke="#8a4309"></path><path d="M683 311L596 281L577 366Z" fill="#d78b00" stroke="#d78b00"></path><path d="M596 281L622 231L534 190Z" fill="#d08302" stroke="#d08302"></path><path d="M318 301L238 387L286 403Z" fill="#d08302" stroke="#d08302"></path><path d="M286 403L278 518L402 515Z" fill="#924a09" stroke="#924a09"></path><path d="M232 263L238 387L318 301Z" fill="#aa5e09" stroke="#aa5e09"></path><path d="M725 382L683 311L577 366Z" fill="#9a5009" stroke="#9a5009"></path><path d="M274 179L232 263L318 301Z" fill="#9a5009" stroke="#9a5009"></path><path d="M223 522L278 518L286 403Z" fill="#924a09" stroke="#924a09"></path><path d="M285 600L431 600L402 515Z" fill="#a25709" stroke="#a25709"></path><path d="M402 515L503 600L539 495Z" fill="#a25709" stroke="#a25709"></path><path d="M308 129L274 179L383 208Z" fill="#a25709" stroke="#a25709"></path><path d="M383 208L274 179L318 301Z" fill="#d08302" stroke="#d08302"></path><path d="M431 600L503 600L402 515Z" fill="#9a5009" stroke="#9a5009"></path><path d="M691 507L725 382L577 366Z" fill="#d78b00" stroke="#d78b00"></path><path d="M274 179L235 208L232 263Z" fill="#d78b00" stroke="#d78b00"></path><path d="M386 68L308 129L383 208Z" fill="#aa5e09" stroke="#aa5e09"></path><path d="M274 179L205 97L235 208Z" fill="#d08302" stroke="#d08302"></path><path d="M691 507L577 366L561 496Z" fill="#c97b04" stroke="#c97b04"></path><path d="M621 600L691 507L561 496Z" fill="#b26508" stroke="#b26508"></path><path d="M130 526L223 522L238 387Z" fill="#ba6c07" stroke="#ba6c07"></path><path d="M238 387L223 522L286 403Z" fill="#d78b00" stroke="#d78b00"></path><path d="M278 518L285 600L402 515Z" fill="#c17406" stroke="#c17406"></path><path d="M534 190L386 68L383 208Z" fill="#d78b00" stroke="#d78b00"></path><path d="M512 63L386 68L534 190Z" fill="#c17406" stroke="#c17406"></path><path d="M627 78L534 190L622 231Z" fill="#a25709" stroke="#a25709"></path><path d="M627 78L512 63L534 190Z" fill="#d78b00" stroke="#d78b00"></path><path d="M503 600L621 600L561 496Z" fill="#d78b00" stroke="#d78b00"></path><path d="M223 522L285 600L278 518Z" fill="#d08302" stroke="#d08302"></path><path d="M806 332L729 196L683 311Z" fill="#c97b04" stroke="#c97b04"></path><path d="M683 311L729 196L622 231Z" fill="#d78b00" stroke="#d78b00"></path><path d="M729 196L627 78L622 231Z" fill="#924a09" stroke="#924a09"></path><path d="M235 208L136 274L232 263Z" fill="#ba6c07" stroke="#ba6c07"></path><path d="M232 263L136 274L238 387Z" fill="#a25709" stroke="#a25709"></path><path d="M122 186L136 274L235 208Z" fill="#a25709" stroke="#a25709"></path><path d="M814 378L806 332L725 382Z" fill="#aa5e09" stroke="#aa5e09"></path><path d="M725 382L806 332L683 311Z" fill="#8a4309" stroke="#8a4309"></path><path d="M223 522L213 600L285 600Z" fill="#b26508" stroke="#b26508"></path><path d="M130 526L213 600L223 522Z" fill="#b26508" stroke="#b26508"></path><path d="M588 0L485 0L512 63Z" fill="#c97b04" stroke="#c97b04"></path><path d="M512 63L485 0L386 68Z" fill="#9a5009" stroke="#9a5009"></path><path d="M310 0L205 97L308 129Z" fill="#b26508" stroke="#b26508"></path><path d="M308 129L205 97L274 179Z" fill="#aa5e09" stroke="#aa5e09"></path><path d="M485 0L410 0L386 68Z" fill="#aa5e09" stroke="#aa5e09"></path><path d="M809 475L814 378L725 382Z" fill="#d08302" stroke="#d08302"></path><path d="M809 475L725 382L691 507Z" fill="#d08302" stroke="#d08302"></path><path d="M310 0L308 129L386 68Z" fill="#8a4309" stroke="#8a4309"></path><path d="M729 196L727 81L627 78Z" fill="#c97b04" stroke="#c97b04"></path><path d="M806 332L782 194L729 196Z" fill="#924a09" stroke="#924a09"></path><path d="M738 600L809 475L691 507Z" fill="#d08302" stroke="#d08302"></path><path d="M84 411L130 526L238 387Z" fill="#aa5e09" stroke="#aa5e09"></path><path d="M627 78L588 0L512 63Z" fill="#d08302" stroke="#d08302"></path><path d="M725 0L588 0L627 78Z" fill="#c17406" stroke="#c17406"></path><path d="M621 600L738 600L691 507Z" fill="#d78b00" stroke="#d78b00"></path><path d="M205 97L122 186L235 208Z" fill="#b26508" stroke="#b26508"></path><path d="M136 274L84 411L238 387Z" fill="#d08302" stroke="#d08302"></path><path d="M0 386L84 411L0 277Z" fill="#c17406" stroke="#c17406"></path><path d="M776 105L727 81L729 196Z" fill="#c97b04" stroke="#c97b04"></path><path d="M410 0L310 0L386 68Z" fill="#a25709" stroke="#a25709"></path><path d="M900 115L776 105L782 194Z" fill="#c97b04" stroke="#c97b04"></path><path d="M782 194L776 105L729 196Z" fill="#aa5e09" stroke="#aa5e09"></path><path d="M727 81L725 0L627 78Z" fill="#8a4309" stroke="#8a4309"></path><path d="M900 272L782 194L806 332Z" fill="#ba6c07" stroke="#ba6c07"></path><path d="M205 97L119 118L122 186Z" fill="#9a5009" stroke="#9a5009"></path><path d="M0 277L84 411L136 274Z" fill="#9a5009" stroke="#9a5009"></path><path d="M161 0L119 118L205 97Z" fill="#c17406" stroke="#c17406"></path><path d="M0 494L110 600L130 526Z" fill="#9a5009" stroke="#9a5009"></path><path d="M130 526L110 600L213 600Z" fill="#d08302" stroke="#d08302"></path><path d="M738 600L820 600L809 475Z" fill="#aa5e09" stroke="#aa5e09"></path><path d="M809 475L900 423L814 378Z" fill="#aa5e09" stroke="#aa5e09"></path><path d="M796 0L725 0L727 81Z" fill="#924a09" stroke="#924a09"></path><path d="M900 504L900 423L809 475Z" fill="#aa5e09" stroke="#aa5e09"></path><path d="M814 378L900 272L806 332Z" fill="#a25709" stroke="#a25709"></path><path d="M900 423L900 272L814 378Z" fill="#c97b04" stroke="#c97b04"></path><path d="M776 105L796 0L727 81Z" fill="#c17406" stroke="#c17406"></path><path d="M900 272L900 223L782 194Z" fill="#aa5e09" stroke="#aa5e09"></path><path d="M0 277L136 274L122 186Z" fill="#d78b00" stroke="#d78b00"></path><path d="M84 411L0 494L130 526Z" fill="#d08302" stroke="#d08302"></path><path d="M310 0L161 0L205 97Z" fill="#aa5e09" stroke="#aa5e09"></path><path d="M0 186L0 277L122 186Z" fill="#8a4309" stroke="#8a4309"></path><path d="M0 186L122 186L119 118Z" fill="#aa5e09" stroke="#aa5e09"></path><path d="M820 600L900 504L809 475Z" fill="#9a5009" stroke="#9a5009"></path><path d="M0 386L0 494L84 411Z" fill="#d08302" stroke="#d08302"></path><path d="M900 115L796 0L776 105Z" fill="#9a5009" stroke="#9a5009"></path><path d="M0 60L0 186L119 118Z" fill="#8a4309" stroke="#8a4309"></path><path d="M161 0L111 0L119 118Z" fill="#9a5009" stroke="#9a5009"></path><path d="M900 223L900 115L782 194Z" fill="#a25709" stroke="#a25709"></path><path d="M820 600L900 600L900 504Z" fill="#aa5e09" stroke="#aa5e09"></path><path d="M0 494L0 600L110 600Z" fill="#d78b00" stroke="#d78b00"></path><path d="M111 0L0 60L119 118Z" fill="#c17406" stroke="#c17406"></path><path d="M900 115L900 0L796 0Z" fill="#ba6c07" stroke="#ba6c07"></path><path d="M111 0L0 0L0 60Z" fill="#c97b04" stroke="#c97b04"></path></g></svg>